<svg width="195" height="48" viewBox="0 0 195 48" fill="none" xmlns="http://www.w3.org/2000/svg">
<g filter="url(#filter0_d_109_3)">
<path d="M14.808 39.176C14.488 39.176 14.072 39.128 13.56 39.032C13.048 38.936 12.52 38.744 11.976 38.456C11.464 38.2 11.032 37.784 10.68 37.208C10.328 36.632 10.152 35.864 10.152 34.904C10.152 34.104 10.312 33.064 10.632 31.784C10.952 30.472 11.496 28.568 12.264 26.072C12.84 24.184 13.4 22.328 13.944 20.504C14.52 18.648 14.984 16.728 15.336 14.744C15.72 12.76 15.912 10.648 15.912 8.408C15.912 7.096 15.832 5.992 15.672 5.096C15.512 4.2 15.208 3.528 14.76 3.08C14.344 2.6 13.752 2.36 12.984 2.36C12.216 2.36 11.544 2.568 10.968 2.984C10.392 3.4 9.912 3.96 9.528 4.664C9.144 5.336 8.856 6.088 8.664 6.92C8.472 7.752 8.376 8.584 8.376 9.416C8.376 10.824 8.616 11.992 9.096 12.92C7.528 12.92 6.392 12.552 5.688 11.816C4.984 11.08 4.632 10.168 4.632 9.08C4.632 8.12 4.872 7.128 5.352 6.104C5.832 5.08 6.488 4.152 7.32 3.32C8.184 2.456 9.176 1.768 10.296 1.256C11.416 0.711999 12.616 0.439999 13.896 0.439999C16.072 0.439999 17.72 1.24 18.84 2.84C19.992 4.44 20.568 6.712 20.568 9.656C20.568 11.864 20.264 14.168 19.656 16.568C19.08 18.936 18.344 21.528 17.448 24.344C17.128 25.368 16.744 26.504 16.296 27.752C15.88 28.968 15.496 30.232 15.144 31.544C14.824 32.824 14.664 34.104 14.664 35.384C14.664 35.992 14.728 36.408 14.856 36.632C15.016 36.888 15.304 37.016 15.72 37.016C16.584 37.016 17.496 36.648 18.456 35.912C19.448 35.176 20.44 34.184 21.432 32.936C22.424 31.688 23.368 30.296 24.264 28.76C25.192 27.224 26.04 25.656 26.808 24.056C27.576 22.424 28.216 20.888 28.728 19.448C29.24 17.976 29.576 16.696 29.736 15.608C30.952 15.608 31.896 15.944 32.568 16.616C33.24 17.288 33.576 17.928 33.576 18.536C33.576 18.856 33.432 19.4 33.144 20.168C32.888 20.936 32.44 22.072 31.8 23.576C31.288 24.792 30.76 26.088 30.216 27.464C29.672 28.808 29.208 30.152 28.824 31.496C28.472 32.808 28.296 34.04 28.296 35.192C28.296 35.832 28.376 36.296 28.536 36.584C28.728 36.872 29.064 37.016 29.544 37.016C30.44 37.016 31.464 36.568 32.616 35.672C33.8 34.808 35.016 33.624 36.264 32.12C37.512 30.584 38.728 28.872 39.912 26.984C41.096 25.064 42.168 23.08 43.128 21.032C44.088 18.984 44.84 16.968 45.384 14.984C45.96 13 46.248 11.192 46.248 9.56C46.248 7.8 45.928 6.552 45.288 5.816C44.68 5.08 43.912 4.552 42.984 4.232C43.56 3.304 44.168 2.632 44.808 2.216C45.48 1.768 46.072 1.544 46.584 1.544C47.32 1.544 48.072 2.024 48.84 2.984C49.64 3.912 50.04 5.384 50.04 7.4C50.04 9.096 49.704 11.048 49.032 13.256C48.392 15.464 47.496 17.768 46.344 20.168C45.224 22.536 43.928 24.856 42.456 27.128C41.016 29.368 39.464 31.4 37.8 33.224C36.168 35.048 34.52 36.488 32.856 37.544C31.192 38.632 29.608 39.176 28.104 39.176C27.272 39.176 26.52 39 25.848 38.648C25.208 38.328 24.696 37.848 24.312 37.208C23.96 36.6 23.784 35.88 23.784 35.048C23.784 34.664 23.832 34.264 23.928 33.848C24.024 33.432 24.136 33.016 24.264 32.6C22.696 34.584 21.112 36.168 19.512 37.352C17.944 38.568 16.376 39.176 14.808 39.176ZM51.5588 36.44C50.1508 36.44 49.0948 36.024 48.3908 35.192C47.6867 34.36 47.3347 33.352 47.3347 32.168C47.3347 31.432 47.4627 30.504 47.7188 29.384C47.9748 28.264 48.3268 27.096 48.7748 25.88C49.2548 24.632 49.7988 23.464 50.4068 22.376C51.0148 21.288 51.6708 20.408 52.3748 19.736C53.0788 19.032 53.7828 18.68 54.4868 18.68C54.8708 18.68 55.2068 18.808 55.4948 19.064C55.7828 19.288 55.9268 19.624 55.9268 20.072C55.9268 20.488 55.6708 21.112 55.1588 21.944C54.6788 22.776 54.1028 23.736 53.4308 24.824C52.7908 25.912 52.2148 27.048 51.7028 28.232C51.2228 29.384 50.9828 30.488 50.9828 31.544C50.9828 32.568 51.1588 33.256 51.5108 33.608C51.8948 33.928 52.4388 34.088 53.1428 34.088C54.2308 34.088 55.4148 33.544 56.6948 32.456C57.9748 31.368 59.3028 29.464 60.6788 26.744L61.3988 27.512C60.2788 30.328 58.8548 32.52 57.1268 34.088C55.3988 35.656 53.5428 36.44 51.5588 36.44ZM57.2228 14.792C56.6148 14.792 56.0548 14.648 55.5428 14.36C55.0628 14.04 54.8228 13.56 54.8228 12.92C54.8228 12.152 55.2388 11.496 56.0708 10.952C56.9028 10.408 57.7668 10.136 58.6628 10.136C59.2388 10.136 59.7188 10.264 60.1028 10.52C60.5188 10.776 60.7268 11.24 60.7268 11.912C60.7268 12.584 60.3588 13.24 59.6228 13.88C58.8868 14.488 58.0868 14.792 57.2228 14.792ZM63.5655 36.44C62.0615 36.44 61.0055 35.944 60.3975 34.952C59.8215 33.928 59.5335 32.728 59.5335 31.352C59.5335 29.784 59.8215 27.944 60.3975 25.832C60.9735 23.72 61.7255 21.512 62.6535 19.208C63.6135 16.872 64.6535 14.6 65.7735 12.392C66.9255 10.152 68.0775 8.136 69.2295 6.344C70.3815 4.552 71.4375 3.128 72.3975 2.072C73.3895 0.983998 74.1895 0.439999 74.7975 0.439999C75.2135 0.439999 75.5655 0.663999 75.8535 1.112C76.1415 1.528 76.3655 2.04 76.5255 2.648C76.7175 3.224 76.8135 3.768 76.8135 4.28C76.8135 5.144 76.5895 6.28 76.1415 7.688C75.7255 9.064 75.1175 10.584 74.3175 12.248C73.5495 13.912 72.6215 15.624 71.5335 17.384C70.4775 19.112 69.2935 20.76 67.9815 22.328C66.7015 23.896 65.3255 25.256 63.8535 26.408C63.7255 27.208 63.5975 28.008 63.4695 28.808C63.3735 29.576 63.3255 30.28 63.3255 30.92C63.3255 32.072 63.5175 32.92 63.9015 33.464C64.2855 33.976 64.7815 34.232 65.3895 34.232C66.1895 34.232 67.0055 33.864 67.8375 33.128C68.7015 32.36 69.5175 31.4 70.2855 30.248C71.0855 29.064 71.7735 27.848 72.3495 26.6L73.5015 27.224C72.1255 30.072 70.5895 32.328 68.8935 33.992C67.1975 35.624 65.4215 36.44 63.5655 36.44ZM64.7175 23.432C65.8055 22.248 66.8295 20.968 67.7895 19.592C68.7815 18.184 69.6775 16.76 70.4775 15.32C71.3095 13.88 72.0295 12.488 72.6375 11.144C73.2455 9.8 73.7095 8.6 74.0295 7.544C74.3815 6.456 74.5735 5.592 74.6055 4.952C74.6055 4.92 74.6055 4.904 74.6055 4.904C74.6055 4.872 74.6055 4.84 74.6055 4.808C74.3495 4.808 73.9335 5.176 73.3575 5.912C72.8135 6.616 72.1575 7.592 71.3895 8.84C70.6215 10.088 69.8215 11.512 68.9895 13.112C68.1895 14.712 67.4055 16.408 66.6375 18.2C65.9015 19.96 65.2615 21.704 64.7175 23.432ZM74.5151 36.44C73.9071 36.44 73.2831 36.28 72.6431 35.96C72.0351 35.672 71.5231 35.208 71.1071 34.568C70.6591 33.928 70.4351 33.112 70.4351 32.12C70.4351 31.064 70.6911 29.88 71.2031 28.568C71.7151 27.256 72.4031 25.944 73.2671 24.632C74.1631 23.32 75.1871 22.12 76.3391 21.032C77.5231 19.944 78.7711 19.064 80.0831 18.392C81.3951 17.72 82.7231 17.384 84.0671 17.384C84.8031 17.384 85.3791 17.512 85.7951 17.768C86.2111 17.992 86.4191 18.376 86.4191 18.92C86.4191 19.08 86.3871 19.272 86.3231 19.496C86.2591 19.688 86.0991 19.864 85.8431 20.024C85.7151 19.832 85.4911 19.704 85.1711 19.64C84.8511 19.544 84.5151 19.496 84.1631 19.496C83.1071 19.496 82.0991 19.8 81.1391 20.408C80.1791 20.984 79.2991 21.736 78.4991 22.664C77.6991 23.592 76.9951 24.6 76.3871 25.688C75.8111 26.776 75.3631 27.832 75.0431 28.856C74.7231 29.848 74.5631 30.712 74.5631 31.448C74.5631 32.056 74.6911 32.552 74.9471 32.936C75.2031 33.288 75.5871 33.464 76.0991 33.464C76.9631 33.464 77.9871 32.968 79.1711 31.976C80.3871 30.952 81.6191 29.496 82.8671 27.608C84.1471 25.688 85.2991 23.4 86.3231 20.744C87.0271 18.92 87.7631 17.064 88.5311 15.176C89.2991 13.256 90.0671 11.416 90.8351 9.656C91.6031 7.896 92.3551 6.328 93.0911 4.952C93.8591 3.576 94.5791 2.488 95.2511 1.688C95.9551 0.855999 96.5951 0.439999 97.1711 0.439999C97.5231 0.439999 97.8271 0.583999 98.0831 0.871999C98.3711 1.128 98.5151 1.464 98.5151 1.88C98.5151 2.424 98.2431 3.304 97.6991 4.52C97.1871 5.704 96.5151 7.128 95.6831 8.792C94.8831 10.456 94.0031 12.264 93.0431 14.216C92.1151 16.136 91.2351 18.12 90.4031 20.168C89.6031 22.184 88.9311 24.184 88.3871 26.168C87.8751 28.12 87.6191 29.96 87.6191 31.688C87.6191 32.456 87.6831 32.984 87.8111 33.272C87.9711 33.528 88.2271 33.656 88.5791 33.656C89.2831 33.656 90.0671 33.384 90.9311 32.84C91.7951 32.296 92.6751 31.496 93.5711 30.44C94.4671 29.352 95.2831 28.056 96.0191 26.552L96.9311 27.32C96.2271 29.08 95.3311 30.632 94.2431 31.976C93.1551 33.32 91.9871 34.36 90.7391 35.096C89.4911 35.864 88.2591 36.248 87.0431 36.248C85.7311 36.248 84.8191 35.832 84.3071 35C83.7951 34.168 83.5391 33.192 83.5391 32.072C83.5391 31.56 83.5711 31.048 83.6351 30.536C83.7311 29.992 83.8271 29.464 83.9231 28.952C82.9311 30.392 81.8751 31.688 80.7551 32.84C79.6671 33.96 78.5951 34.84 77.5391 35.48C76.4831 36.12 75.4751 36.44 74.5151 36.44ZM105.965 39.176C104.109 39.176 102.333 38.856 100.637 38.216C98.9733 37.576 97.6133 36.6 96.5573 35.288C95.5013 33.976 94.9733 32.344 94.9733 30.392C94.9733 28.664 95.3573 27.32 96.1253 26.36C96.8933 25.368 97.8533 24.68 99.0053 24.296C100.157 23.912 101.277 23.72 102.365 23.72C101.341 24.808 100.557 25.928 100.013 27.08C99.5013 28.232 99.2453 29.336 99.2453 30.392C99.2453 31.48 99.5173 32.504 100.061 33.464C100.637 34.392 101.485 35.144 102.605 35.72C103.725 36.328 105.117 36.632 106.781 36.632C108.221 36.632 109.613 36.392 110.957 35.912C112.333 35.432 113.453 34.712 114.317 33.752C115.213 32.792 115.661 31.592 115.661 30.152C115.661 28.84 115.277 27.72 114.509 26.792C113.773 25.832 112.813 24.984 111.629 24.248C110.445 23.48 109.197 22.76 107.885 22.088C106.573 21.384 105.325 20.632 104.141 19.832C102.957 19.032 101.981 18.104 101.213 17.048C100.477 15.992 100.109 14.728 100.109 13.256C100.109 11.944 100.429 10.552 101.069 9.08C101.741 7.576 102.685 6.168 103.901 4.856C105.117 3.544 106.589 2.488 108.317 1.688C110.045 0.855999 111.965 0.439999 114.077 0.439999C116.285 0.439999 117.837 0.903998 118.733 1.832C119.629 2.76 120.077 3.976 120.077 5.48C120.077 6.664 119.869 7.928 119.453 9.272C119.037 10.616 118.525 11.896 117.917 13.112C117.341 14.328 116.781 15.368 116.237 16.232C115.533 16.072 115.005 15.8 114.653 15.416C114.301 15 114.125 14.456 114.125 13.784C114.125 13.112 114.253 12.36 114.509 11.528C114.797 10.696 115.117 9.832 115.469 8.936C115.853 8.04 116.173 7.176 116.429 6.344C116.717 5.48 116.861 4.728 116.861 4.088C116.861 3.512 116.685 3.064 116.333 2.744C116.013 2.424 115.341 2.264 114.317 2.264C112.781 2.264 111.373 2.6 110.093 3.272C108.813 3.944 107.693 4.792 106.733 5.816C105.805 6.84 105.085 7.928 104.573 9.08C104.061 10.2 103.805 11.224 103.805 12.152C103.805 13.304 104.173 14.296 104.909 15.128C105.645 15.928 106.589 16.664 107.741 17.336C108.925 18.008 110.157 18.68 111.437 19.352C112.749 20.024 113.981 20.776 115.133 21.608C116.317 22.44 117.277 23.432 118.013 24.584C118.749 25.736 119.117 27.144 119.117 28.808C119.117 30.472 118.733 31.944 117.965 33.224C117.229 34.504 116.221 35.576 114.941 36.44C113.661 37.336 112.237 38.008 110.669 38.456C109.133 38.936 107.565 39.176 105.965 39.176ZM124.224 36.824C123.52 36.824 123.008 36.28 122.688 35.192C122.4 34.104 122.256 32.84 122.256 31.4C122.256 29.928 122.496 28.152 122.976 26.072C123.488 23.992 124.16 21.8 124.992 19.496C125.856 17.192 126.8 14.936 127.824 12.728C128.88 10.52 129.952 8.52 131.04 6.728C132.16 4.904 133.216 3.448 134.208 2.36C135.232 1.272 136.128 0.727998 136.896 0.727998C137.568 0.727998 138.08 1.096 138.432 1.832C138.784 2.568 138.96 3.336 138.96 4.136C138.96 5 138.752 6.072 138.336 7.352C137.952 8.6 137.408 9.944 136.704 11.384C136 12.824 135.168 14.248 134.208 15.656C133.28 17.032 132.256 18.296 131.136 19.448C130.048 20.6 128.912 21.528 127.728 22.232C127.312 23.32 126.976 24.344 126.72 25.304C126.496 26.232 126.336 27.112 126.24 27.944C126.144 28.776 126.096 29.592 126.096 30.392C126.096 30.552 126.096 30.728 126.096 30.92C126.128 31.08 126.144 31.24 126.144 31.4C126.272 31.208 126.48 30.712 126.768 29.912C127.056 29.112 127.44 28.184 127.92 27.128C128.432 26.04 129.056 24.984 129.792 23.96C130.528 22.904 131.392 22.04 132.384 21.368C133.376 20.664 134.512 20.312 135.792 20.312C136.88 20.312 137.728 20.568 138.336 21.08C138.944 21.56 139.376 22.168 139.632 22.904C139.888 23.608 140.016 24.328 140.016 25.064C140.016 26.088 139.84 27.048 139.488 27.944C139.168 28.84 138.832 29.688 138.48 30.488C138.16 31.256 138 31.992 138 32.696C138 33.272 138.128 33.672 138.384 33.896C138.64 34.12 138.944 34.232 139.296 34.232C140 34.232 140.816 33.88 141.744 33.176C142.704 32.472 143.648 31.544 144.576 30.392C145.536 29.208 146.352 27.912 147.024 26.504L147.792 27.32C147.056 28.92 146.192 30.392 145.2 31.736C144.208 33.08 143.12 34.152 141.936 34.952C140.752 35.752 139.472 36.152 138.096 36.152C136.88 36.152 135.952 35.832 135.312 35.192C134.672 34.552 134.352 33.752 134.352 32.792C134.352 32.12 134.464 31.384 134.688 30.584C134.944 29.752 135.184 28.92 135.408 28.088C135.632 27.256 135.744 26.504 135.744 25.832C135.744 25.064 135.568 24.536 135.216 24.248C134.896 23.96 134.496 23.816 134.016 23.816C133.216 23.816 132.496 24.136 131.856 24.776C131.216 25.384 130.64 26.184 130.128 27.176C129.616 28.168 129.136 29.224 128.688 30.344C128.24 31.432 127.792 32.472 127.344 33.464C126.896 34.456 126.416 35.256 125.904 35.864C125.424 36.504 124.864 36.824 124.224 36.824ZM128.736 19.16C129.568 18.424 130.368 17.544 131.136 16.52C131.904 15.496 132.608 14.44 133.248 13.352C133.92 12.232 134.496 11.16 134.976 10.136C135.488 9.08 135.888 8.136 136.176 7.304C136.464 6.472 136.624 5.832 136.656 5.384C136.656 5.352 136.656 5.336 136.656 5.336C136.656 5.304 136.656 5.272 136.656 5.24C136.464 5.24 136.048 5.64 135.408 6.44C134.8 7.208 134.08 8.264 133.248 9.608C132.448 10.92 131.632 12.408 130.8 14.072C130 15.736 129.312 17.432 128.736 19.16ZM149.574 36.44C148.166 36.44 147.11 36.024 146.406 35.192C145.702 34.36 145.35 33.352 145.35 32.168C145.35 31.432 145.478 30.504 145.734 29.384C145.99 28.264 146.342 27.096 146.79 25.88C147.27 24.632 147.814 23.464 148.422 22.376C149.03 21.288 149.686 20.408 150.39 19.736C151.094 19.032 151.798 18.68 152.502 18.68C152.886 18.68 153.222 18.808 153.51 19.064C153.798 19.288 153.942 19.624 153.942 20.072C153.942 20.488 153.686 21.112 153.174 21.944C152.694 22.776 152.118 23.736 151.446 24.824C150.806 25.912 150.23 27.048 149.718 28.232C149.238 29.384 148.998 30.488 148.998 31.544C148.998 32.568 149.174 33.256 149.526 33.608C149.91 33.928 150.454 34.088 151.158 34.088C152.246 34.088 153.43 33.544 154.71 32.456C155.99 31.368 157.318 29.464 158.694 26.744L159.414 27.512C158.294 30.328 156.87 32.52 155.142 34.088C153.414 35.656 151.558 36.44 149.574 36.44ZM155.238 14.792C154.63 14.792 154.07 14.648 153.558 14.36C153.078 14.04 152.838 13.56 152.838 12.92C152.838 12.152 153.254 11.496 154.086 10.952C154.918 10.408 155.782 10.136 156.678 10.136C157.254 10.136 157.734 10.264 158.118 10.52C158.534 10.776 158.742 11.24 158.742 11.912C158.742 12.584 158.374 13.24 157.638 13.88C156.902 14.488 156.102 14.792 155.238 14.792ZM166.333 36.248C165.149 36.248 164.189 35.928 163.453 35.288C162.717 34.68 162.349 33.848 162.349 32.792C162.349 31.896 162.573 30.936 163.021 29.912C163.469 28.888 163.917 27.88 164.365 26.888C164.845 25.896 165.085 25.016 165.085 24.248C165.085 23.512 164.845 22.904 164.365 22.424C163.885 21.912 163.325 21.496 162.685 21.176C161.981 22.936 161.181 24.648 160.285 26.312C159.421 27.944 158.717 29.224 158.173 30.152L157.453 28.76C157.901 27.928 158.493 26.744 159.229 25.208C159.965 23.672 160.669 21.96 161.341 20.072C161.021 19.752 160.861 19.32 160.861 18.776C160.861 17.944 161.117 17.16 161.629 16.424C162.141 15.688 162.637 15.32 163.117 15.32C163.501 15.32 163.773 15.544 163.933 15.992C164.125 16.408 164.221 16.696 164.221 16.856C164.221 17.016 164.141 17.304 163.981 17.72C163.853 18.136 163.757 18.44 163.693 18.632C163.725 18.984 163.997 19.336 164.509 19.688C165.053 20.008 165.661 20.392 166.333 20.84C167.005 21.288 167.597 21.848 168.109 22.52C168.621 23.192 168.877 24.04 168.877 25.064C168.877 25.992 168.669 26.936 168.253 27.896C167.837 28.856 167.421 29.752 167.005 30.584C166.589 31.416 166.381 32.136 166.381 32.744C166.381 33.192 166.493 33.496 166.717 33.656C166.973 33.784 167.261 33.848 167.581 33.848C168.349 33.848 169.149 33.624 169.981 33.176C170.813 32.696 171.629 32.088 172.429 31.352C173.229 30.616 173.933 29.848 174.541 29.048C175.149 28.216 175.613 27.464 175.933 26.792L177.085 27.656C176.477 29.032 175.597 30.392 174.445 31.736C173.293 33.048 172.013 34.136 170.605 35C169.197 35.832 167.773 36.248 166.333 36.248ZM179.259 37.208C177.851 37.208 176.715 36.792 175.851 35.96C174.987 35.128 174.555 33.864 174.555 32.168C174.555 30.856 174.795 29.224 175.275 27.272C175.787 25.32 176.427 23.304 177.195 21.224C176.971 21.16 176.699 21.112 176.379 21.08C176.091 21.016 175.803 20.92 175.515 20.792V19.304C176.027 19.368 176.443 19.416 176.763 19.448C177.115 19.48 177.467 19.512 177.819 19.544C178.491 17.848 179.211 16.216 179.979 14.648C180.779 13.048 181.563 11.624 182.331 10.376C183.131 9.128 183.883 8.152 184.587 7.448C185.291 6.712 185.915 6.344 186.459 6.344C186.779 6.344 187.083 6.472 187.371 6.728C187.659 6.952 187.803 7.288 187.803 7.736C187.803 8.376 187.467 9.288 186.795 10.472C186.155 11.656 185.355 13.048 184.395 14.648C183.435 16.216 182.507 17.896 181.611 19.688C181.867 19.688 182.123 19.688 182.379 19.688C182.635 19.688 182.875 19.688 183.099 19.688C184.507 19.688 185.771 19.672 186.891 19.64C188.043 19.576 189.211 19.48 190.395 19.352V20.936C188.635 21.096 187.019 21.224 185.547 21.32C184.075 21.416 182.667 21.48 181.323 21.512C181.227 21.512 181.131 21.512 181.035 21.512C180.939 21.512 180.843 21.512 180.747 21.512C180.075 23.08 179.483 24.696 178.971 26.36C178.491 27.992 178.251 29.592 178.251 31.16C178.251 32.472 178.459 33.4 178.875 33.944C179.291 34.488 179.947 34.76 180.843 34.76C182.443 34.76 184.075 34.04 185.739 32.6C187.435 31.128 188.907 29.144 190.155 26.648L190.827 27.128C189.995 29.016 188.955 30.728 187.707 32.264C186.491 33.8 185.163 35 183.723 35.864C182.283 36.76 180.795 37.208 179.259 37.208Z" fill="black"/>
</g>
<defs>
<filter id="filter0_d_109_3" x="0.632019" y="0.440002" width="194.195" height="46.736" filterUnits="userSpaceOnUse" color-interpolation-filters="sRGB">
<feFlood flood-opacity="0" result="BackgroundImageFix"/>
<feColorMatrix in="SourceAlpha" type="matrix" values="0 0 0 0 0 0 0 0 0 0 0 0 0 0 0 0 0 0 127 0" result="hardAlpha"/>
<feOffset dy="4"/>
<feGaussianBlur stdDeviation="2"/>
<feComposite in2="hardAlpha" operator="out"/>
<feColorMatrix type="matrix" values="0 0 0 0 0 0 0 0 0 0 0 0 0 0 0 0 0 0 0.25 0"/>
<feBlend mode="normal" in2="BackgroundImageFix" result="effect1_dropShadow_109_3"/>
<feBlend mode="normal" in="SourceGraphic" in2="effect1_dropShadow_109_3" result="shape"/>
</filter>
</defs>
</svg>
